#!OML:ASF F:\VICON\USERDATA\INSTALL\Justin_Nancy\Justin_Nancy.ASF
:FULLY-SPECIFIED
:DEGREES
358
root -4.20566 17.4745 12.6456 -6.13125 75.5773 -13.4747
lowerback 7.86859 3.8235 4.75063
upperback -0.598855 5.61379 1.091
thorax -4.68458 2.67659 -2.16404
lowerneck -17.7108 -4.24984 -8.31212
upperneck 21.4873 -4.29802 3.69514
head 10.0452 -2.1817 2.09313
rclavicle 3.21037e-014 8.74653e-015
rhumerus -28.4158 -15.1662 -78.0149
rradius 33.2196
rwrist 3.03119
rhand -13.9371 11.6702
rfingers 7.12502
rthumb 12.1898 -17.9546
lclavicle 3.21037e-014 8.74653e-015
lhumerus -42.4845 34.9244 59.0136
lradius 18.0735
lwrist -16.8687
lhand -17.7468 26.4616
lfingers 7.12502
lthumb 8.51473 56.2699
rfemur 10.6031 -9.41336 24.5887
rtibia 21.2682
rfoot 1.47323 -20.3832
rtoes -29.324
lfemur -29.7535 5.4766 -24.4145
ltibia 22.3638
lfoot -3.61725 3.34312
ltoes 4.89724
359
root -4.06526 17.4948 12.6737 -6.27185 75.8313 -13.4062
lowerback 7.90202 3.70491 4.51211
upperback -0.45069 5.44339 1.31714
thorax -4.60364 2.60659 -1.77828
lowerneck -17.735 -4.04439 -8.12224
upperneck 21.3815 -3.90119 3.05163
head 9.96898 -2.05704 1.88971
rclavicle -1.08338e-014 -3.97569e-015
rhumerus -28.2891 -14.4976 -78.2091
rradius 33.5375
rwrist 2.97335
rhand -14.2482 11.4604
rfingers 7.12502
rthumb 11.8898 -18.182
lclavicle -1.08338e-014 -3.97569e-015
lhumerus -43.2559 36.1455 58.3778
lradius 17.7886
lwrist -18.3661
lhand -17.5538 26.6616
lfingers 7.12502
lthumb 8.70094 56.4623
rfemur 10.0052 -10.0383 24.279
rtibia 23.4397
rfoot 1.55722 -20.8642
rtoes -25.038
lfemur -29.0661 5.25005 -24.4304
ltibia 22.4654
lfoot -3.53435 3.41244
ltoes 6.41456
360
root -3.92148 17.5168 12.7039 -5.61427 76.1432 -12.515
lowerback 7.91712 3.45605 4.02959
upperback -0.278945 5.07584 1.56287
thorax -4.51757 2.44488 -1.21479
lowerneck -18.0562 -3.87564 -8.78207
upperneck 21.5791 -3.47503 3.17915
head 10.0918 -1.89946 2.10204
rclavicle -3.85642e-014 9.93923e-015
rhumerus -28.0565 -13.3818 -78.5995
rradius 33.8496
rwrist 2.54495
rhand -14.5959 11.5302
rfingers 7.12502
rthumb 11.5545 -18.1313
lclavicle -3.85642e-014 9.93923e-015
lhumerus -44.167 37.4708 57.8399
lradius 17.6262
lwrist -18.9288
lhand -17.4583 26.612
lfingers 7.12502
lthumb 8.79312 56.4088
rfemur 9.08157 -10.0432 23.7699
rtibia 25.6741
rfoot 3.42197 -20.6574
rtoes -23.2458
lfemur -28.3933 4.85909 -24.7012
ltibia 22.6436
lfoot -3.4191 3.80437
ltoes 6.8594
361
root -3.776 17.5324 12.7248 -5.90916 76.542 -12.6835
lowerback 7.93678 3.28039 3.9982
upperback -0.250712 4.84974 1.72826
thorax -4.52674 2.33689 -1.00305
lowerneck -18.1567 -3.87711 -9.45341
upperneck 21.8098 -3.34125 3.48014
head 10.2057 -1.85922 2.34037
rclavicle 3.65764e-014 -7.95139e-016
rhumerus -28.0866 -13.0606 -78.8376
rradius 34.1853
rwrist 2.56262
rhand -14.414 11.862
rfingers 7.12502
rthumb 11.7299 -17.7896
lclavicle 3.65764e-014 -7.95139e-016
lhumerus -44.8173 38.0276 57.6541
lradius 17.6198
lwrist -18.7719
lhand -16.7766 26.5541
lfingers 7.12502
lthumb 9.45087 56.3222
rfemur 7.84138 -10.1989 23.3959
rtibia 28.0591
rfoot 5.66649 -20.2469
rtoes -20.1739
lfemur -27.7729 4.79913 -24.8856
ltibia 22.6327
lfoot -3.34824 3.41748
ltoes 7.6446
362
root -3.6284 17.5557 12.7515 -6.11457 76.8604 -12.8365
lowerback 7.84604 3.17973 3.97168
upperback -0.255625 4.71234 1.78957
thorax -4.494 2.27146 -0.904598
lowerneck -17.9791 -3.84136 -9.46557
upperneck 21.6244 -3.27636 3.36246
head 10.0999 -1.84301 2.30948
rclavicle 3.55825e-014 1.19271e-014
rhumerus -28.203 -13.643 -78.6681
rradius 34.2587
rwrist 4.95776
rhand -13.015 13.1608
rfingers 7.12502
rthumb 13.0788 -16.4091
lclavicle 3.55825e-014 1.19271e-014
lhumerus -44.7492 37.3689 58.367
lradius 17.5913
lwrist -18.2698
lhand -16.7309 26.7913
lfingers 7.12502
lthumb 9.49499 56.5574
rfemur 6.53343 -10.4527 23.0638
rtibia 30.5073
rfoot 8.31593 -19.3063
rtoes -18.4613
lfemur -27.2299 5.56761 -25.2072
ltibia 22.5275
lfoot -3.33655 2.21017
ltoes 10.2838
363
root -3.48363 17.577 12.7882 -5.82725 77.1073 -12.4156
lowerback 7.78905 3.16872 3.69116
upperback -0.199919 4.6657 1.78257
thorax -4.42687 2.25666 -0.746251
lowerneck -18.1126 -3.85864 -9.24599
upperneck 21.7515 -3.31718 3.22983
head 10.1664 -1.85967 2.22009
rclavicle 9.93923e-015 2.22639e-014
rhumerus -28.2841 -12.655 -79.3151
rradius 34.7672
rwrist 2.99109
rhand -14.8345 12.8535
rfingers 7.12502
rthumb 11.3244 -16.8208
lclavicle 9.93923e-015 2.22639e-014
lhumerus -44.5277 36.8848 58.9753
lradius 17.4541
lwrist -18.4038
lhand -17.0439 26.6116
lfingers 7.12502
lthumb 9.19302 56.3912
rfemur 5.28291 -10.5849 22.7128
rtibia 32.9608
rfoot 10.6462 -18.7835
rtoes -15.8079
lfemur -26.6156 5.4773 -25.3452
ltibia 22.5625
lfoot -3.22163 2.1205
ltoes 11.8415
364
root -3.34646 17.5834 12.8184 -4.87501 77.4118 -11.2715
lowerback 7.84333 3.17431 3.2404
upperback -0.156355 4.63072 1.75992
thorax -4.44616 2.24883 -0.51871
lowerneck -18.3069 -3.88941 -9.05574
upperneck 22.0966 -3.35795 3.09494
head 10.324 -1.87998 2.13586
rclavicle -2.57426e-014 1.35174e-014
rhumerus -28.3344 -12.376 -79.4665
rradius 35.0483
rwrist 2.63223
rhand -15.3782 12.9262
rfingers 7.12502
rthumb 10.8 -16.7761
lclavicle -2.57426e-014 1.35174e-014
lhumerus -44.3753 36.258 59.8626
lradius 17.6048
lwrist -18.3242
lhand -16.945 26.1345
lfingers 7.12502
lthumb 9.28843 55.9099
rfemur 4.02037 -10.9994 22.2126
rtibia 35.5252
rfoot 12.3921 -18.6705
rtoes -12.0841
lfemur -25.9438 5.24962 -25.7003
ltibia 22.6026
lfoot -3.19604 2.35832
ltoes 11.8796
365
root -3.21181 17.5916 12.8467 -4.56322 77.8023 -10.8129
lowerback 7.88741 3.10068 3.04055
upperback -0.0963439 4.51452 1.76545
thorax -4.4272 2.1967 -0.390423
lowerneck -18.2319 -3.87807 -8.7282
upperneck 21.9962 -3.39437 2.88552
head 10.2648 -1.89332 2.00167
rclavicle -4.37326e-014 -1.59028e-015
rhumerus -28.2404 -12.4111 -79.4841
rradius 35.1493
rwrist 3.56472
rhand -14.3966 13.2418
rfingers 7.12502
rthumb 11.7467 -16.4088
lclavicle -4.37326e-014 -1.59028e-015
lhumerus -43.9623 35.527 60.85
lradius 17.6656
lwrist -18.324
lhand -15.6247 25.787
lfingers 7.12502
lthumb 10.5622 55.5016
rfemur 2.67806 -11.8067 21.8813
rtibia 38.197
rfoot 13.4976 -18.3478
rtoes -8.01975
lfemur -25.3141 5.51863 -25.9675
ltibia 22.5684
lfoot -3.31787 1.82643
ltoes 14.1341
366
root -3.07866 17.6089 12.8725 -4.11575 78.2412 -10.2769
lowerback 7.92041 2.93477 2.87498
upperback -0.0578091 4.27917 1.77566
thorax -4.42403 2.0844 -0.262858
lowerneck -18.007 -3.86092 -8.32249
upperneck 21.6749 -3.47281 2.71507
head 10.0987 -1.91457 1.86318
rclavicle -2.79292e-014 3.18055e-015
rhumerus -28.1399 -12.1019 -79.6933
rradius 35.3579
rwrist 3.79595
rhand -13.8922 13.2724
rfingers 7.12502
rthumb 12.2331 -16.3498
lclavicle -2.79292e-014 3.18055e-015
lhumerus -43.2839 34.3487 62.1747
lradius 17.7097
lwrist -17.3709
lhand -15.8789 25.5031
lfingers 7.12502
lthumb 10.317 55.23
rfemur 1.16119 -12.4532 21.5562
rtibia 40.9437
rfoot 13.8975 -18.1195
rtoes -3.37544
lfemur -24.7442 5.38516 -26.0831
ltibia 22.5552
lfoot -3.50668 1.49749
ltoes 17.9166
367
root -2.94811 17.6228 12.9035 -3.33962 78.5571 -9.32532
lowerback 8.04505 2.799 2.54304
upperback 0.0047134 4.07264 1.80959
thorax -4.45858 1.98982 -0.0255609
lowerneck -18.1731 -3.70784 -9.05764
upperneck 21.8061 -3.14505 3.18872
head 10.18 -1.76945 2.19953
rclavicle -2.76311e-014 1.51076e-014
rhumerus -27.9994 -11.724 -79.8975
rradius 35.5248
rwrist 3.7651
rhand -14.0579 13.4379
rfingers 7.12502
rthumb 12.0732 -16.1938
lclavicle -2.76311e-014 1.51076e-014
lhumerus -42.7064 33.0886 63.6385
lradius 17.9796
lwrist -15.9927
lhand -16.4064 25.6631
lfingers 7.12502
lthumb 9.8081 55.4146
rfemur -0.358496 -12.726 21.1801
rtibia 43.7299
rfoot 13.0836 -18.1004
rtoes 2.0027
lfemur -24.12 6.08686 -26.4944
ltibia 22.4869
lfoot -3.76194 0.694649
ltoes 18.4629
368
root -2.82237 17.6257 12.9412 -2.61263 78.8441 -8.37368
lowerback 8.24052 2.79399 2.15901
upperback 0.0431565 4.03858 1.85899
thorax -4.55868 1.98092 0.233217
lowerneck -18.1662 -3.80361 -9.56331
upperneck 21.9158 -3.19274 3.44904
head 10.2375 -1.80365 2.37015
rclavicle -1.30204e-014 -2.8625e-014
rhumerus -28.0093 -11.8479 -79.8587
rradius 35.624
rwrist 4.04108
rhand -14.1393 13.7318
rfingers 7.12502
rthumb 11.9948 -15.9045
lclavicle -1.30204e-014 -2.8625e-014
lhumerus -42.2651 31.8765 65.0995
lradius 18.3658
lwrist -15.518
lhand -16.5486 25.6378
lfingers 7.12502
lthumb 9.67086 55.3957
rfemur -1.82671 -12.9485 20.8617
rtibia 46.4693
rfoot 11.7975 -17.435
rtoes 5.2831
lfemur -23.3651 6.90814 -26.9633
ltibia 22.2757
lfoot -4.0796 -0.0853856
ltoes 15.9976
369
root -2.69854 17.6318 12.9757 -2.03177 79.2541 -7.63249
lowerback 8.38412 2.67095 1.80852
upperback 0.0429582 3.84826 1.90356
thorax -4.66703 1.894 0.489455
lowerneck -18.1019 -3.78912 -9.52275
upperneck 22.0292 -3.15485 3.32318
head 10.2614 -1.79838 2.32575
rclavicle -1.97791e-014 1.43125e-014
rhumerus -27.9749 -12.168 -80.0029
rradius 35.6911
rwrist 4.31045
rhand -14.1633 13.6943
rfingers 7.12502
rthumb 11.9716 -15.9434
lclavicle -1.97791e-014 1.43125e-014
lhumerus -41.8051 30.6401 66.5153
lradius 18.6345
lwrist -15.1877
lhand -17.3093 25.8239
lfingers 7.12502
lthumb 8.93686 55.6146
rfemur -3.36881 -13.029 20.6773
rtibia 49.1136
rfoot 10.2363 -16.662
rtoes 6.98987
lfemur -22.4988 6.10849 -27.0128
ltibia 21.9128
lfoot -4.2414 0.353776
ltoes 14.6959
370
root -2.57199 17.6499 13.0146 -0.383164 79.6954 -5.67514
lowerback 8.56864 2.46648 1.07801
upperback 0.186926 3.5118 1.99939
thorax -4.67045 1.74599 1.03232
lowerneck -18.2144 -3.67868 -9.53059
upperneck 22.0283 -2.95443 3.19658
head 10.2666 -1.72152 2.30974
rclavicle 2.89232e-014 -7.95139e-015
rhumerus -27.6405 -12.2511 -80.1392
rradius 35.6419
rwrist 4.6025
rhand -14.0067 13.7347
rfingers 7.12502
rthumb 12.1227 -15.8941
lclavicle 2.89232e-014 -7.95139e-015
lhumerus -41.4589 30.4308 67.3725
lradius 18.7795
lwrist -15.7934
lhand -16.8843 25.0743
lfingers 7.12502
lthumb 9.34698 54.8471
rfemur -4.83651 -12.9225 20.2599
rtibia 51.6684
rfoot 8.63815 -16.0225
rtoes 7.32681
lfemur -21.3318 5.16568 -27.0505
ltibia 21.3579
lfoot -4.37595 0.674987
ltoes 18.6324
